# Blender 4.5.3 LTS
# www.blender.org
o Cylinder.001
v 0.000000 0.002415 -0.021058
v 0.000000 2.249017 -0.021058
v 0.004108 0.002415 -0.020653
v 0.004108 2.249017 -0.020653
v 0.008059 0.002415 -0.019455
v 0.008059 2.249017 -0.019455
v 0.011699 0.002415 -0.017509
v 0.011699 2.249017 -0.017509
v 0.014890 0.002415 -0.014890
v 0.014890 2.249017 -0.014890
v 0.017509 0.002415 -0.011699
v 0.017509 2.249017 -0.011699
v 0.019455 0.002415 -0.008059
v 0.019455 2.249017 -0.008059
v 0.020653 0.002415 -0.004108
v 0.020653 2.249017 -0.004108
v 0.021058 0.002415 0.000000
v 0.021058 2.249017 0.000000
v 0.020653 0.002415 0.004108
v 0.020653 2.249017 0.004108
v 0.019455 0.002415 0.008059
v 0.019455 2.249017 0.008059
v 0.017509 0.002415 0.011699
v 0.017509 2.249017 0.011699
v 0.014890 0.002415 0.014890
v 0.014890 2.249017 0.014890
v 0.011699 0.002415 0.017509
v 0.011699 2.249017 0.017509
v 0.008059 0.002415 0.019455
v 0.008059 2.249017 0.019455
v 0.004108 0.002415 0.020653
v 0.004108 2.249017 0.020653
v 0.000000 0.002415 0.021058
v 0.000000 2.249017 0.021058
v -0.004108 0.002415 0.020653
v -0.004108 2.249017 0.020653
v -0.008059 0.002415 0.019455
v -0.008059 2.249017 0.019455
v -0.011699 0.002415 0.017509
v -0.011699 2.249017 0.017509
v -0.014890 0.002415 0.014890
v -0.014890 2.249017 0.014890
v -0.017509 0.002415 0.011699
v -0.017509 2.249017 0.011699
v -0.019455 0.002415 0.008059
v -0.019455 2.249017 0.008059
v -0.020653 0.002415 0.004108
v -0.020653 2.249017 0.004108
v -0.021058 0.002415 0.000000
v -0.021058 2.249017 0.000000
v -0.020653 0.002415 -0.004108
v -0.020653 2.249017 -0.004108
v -0.019455 0.002415 -0.008059
v -0.019455 2.249017 -0.008059
v -0.017509 0.002415 -0.011699
v -0.017509 2.249017 -0.011699
v -0.014890 0.002415 -0.014890
v -0.014890 2.249017 -0.014890
v -0.011699 0.002415 -0.017509
v -0.011699 2.249017 -0.017509
v -0.008059 0.002415 -0.019455
v -0.008059 2.249017 -0.019455
v -0.004108 0.002415 -0.020653
v -0.004108 2.249017 -0.020653
v -0.051806 2.243325 0.034336
v -0.051806 2.602911 0.034336
v -0.051806 2.243325 -0.034336
v -0.051806 2.602911 -0.034336
v 0.051806 2.227497 0.051806
v 0.051806 2.618739 0.051806
v 0.051806 2.227497 -0.051806
v 0.051806 2.618739 -0.051806
v -0.051806 2.227497 -0.051806
v -0.051806 2.227497 0.051806
v -0.051806 2.618739 0.051806
v -0.051806 2.618739 -0.051806
v -1.896046 1.904691 -0.012861
v -1.896046 1.904691 0.012861
v -1.911256 1.946068 0.012861
v -1.911256 1.946068 -0.012861
v -0.391306 2.584326 0.029780
v -0.723466 2.552862 0.026142
v -1.046167 2.482996 0.022580
v -1.326000 2.375595 0.019460
v -1.613581 2.226146 0.016226
v -1.602877 2.056559 0.016226
v -1.313162 2.172209 0.019460
v -1.031271 2.246994 0.022580
v -0.706221 2.279637 0.026142
v -0.371661 2.273077 0.029780
v -0.391306 2.584326 -0.029780
v -0.723466 2.552862 -0.026142
v -1.046167 2.482996 -0.022580
v -1.326000 2.375595 -0.019460
v -1.613581 2.226146 -0.016226
v -1.602877 2.056559 -0.016226
v -1.313162 2.172209 -0.019460
v -1.031271 2.246994 -0.022580
v -0.706221 2.279637 -0.026142
v -0.371661 2.273077 -0.029780
vn 0.0980 -0.0000 -0.9952
vn 0.2903 -0.0000 -0.9569
vn 0.4714 -0.0000 -0.8819
vn 0.6344 -0.0000 -0.7730
vn 0.7730 -0.0000 -0.6344
vn 0.8819 -0.0000 -0.4714
vn 0.9569 -0.0000 -0.2903
vn 0.9952 -0.0000 -0.0980
vn 0.9952 -0.0000 0.0980
vn 0.9569 -0.0000 0.2903
vn 0.8819 -0.0000 0.4714
vn 0.7730 -0.0000 0.6344
vn 0.6344 -0.0000 0.7730
vn 0.4714 -0.0000 0.8819
vn 0.2903 -0.0000 0.9569
vn 0.0980 -0.0000 0.9952
vn -0.0980 -0.0000 0.9952
vn -0.2903 -0.0000 0.9569
vn -0.4714 -0.0000 0.8819
vn -0.6344 -0.0000 0.7730
vn -0.7730 -0.0000 0.6344
vn -0.8819 -0.0000 0.4714
vn -0.9569 -0.0000 0.2903
vn -0.9952 -0.0000 0.0980
vn -0.9952 -0.0000 -0.0980
vn -0.9569 -0.0000 -0.2903
vn -0.8819 -0.0000 -0.4714
vn -0.7730 -0.0000 -0.6344
vn -0.6344 -0.0000 -0.7730
vn -0.4714 -0.0000 -0.8819
vn -0.0000 1.0000 -0.0000
vn -0.2903 -0.0000 -0.9569
vn -0.0980 -0.0000 -0.9952
vn -0.0000 -1.0000 -0.0000
vn -0.0105 -0.0013 0.9999
vn -0.0000 -0.0000 -1.0000
vn 1.0000 -0.0000 -0.0000
vn -0.0000 -0.0000 1.0000
vn -1.0000 -0.0000 -0.0000
vn -0.9386 -0.3450 -0.0000
vn -0.6853 0.7283 -0.0000
vn 0.4600 -0.8879 -0.0000
vn -0.0105 -0.0013 -0.9999
vn -0.0138 -0.0004 -0.9999
vn -0.0109 -0.0007 -0.9999
vn -0.0926 -0.9957 -0.0000
vn -0.0196 -0.9998 -0.0000
vn 0.0999 -0.9950 -0.0000
vn 0.2564 -0.9666 -0.0000
vn 0.3707 -0.9287 -0.0000
vn -0.0547 0.9985 -0.0000
vn -0.0943 0.9955 -0.0000
vn -0.2116 0.9774 -0.0000
vn -0.3583 0.9336 -0.0000
vn -0.4611 0.8873 -0.0000
vn -0.0138 -0.0004 0.9999
vn -0.0109 -0.0007 0.9999
vt 1.000000 0.500000
vt 1.000000 1.000000
vt 0.968750 1.000000
vt 0.968750 0.500000
vt 0.937500 1.000000
vt 0.937500 0.500000
vt 0.906250 1.000000
vt 0.906250 0.500000
vt 0.875000 1.000000
vt 0.875000 0.500000
vt 0.843750 1.000000
vt 0.843750 0.500000
vt 0.812500 1.000000
vt 0.812500 0.500000
vt 0.781250 1.000000
vt 0.781250 0.500000
vt 0.750000 1.000000
vt 0.750000 0.500000
vt 0.718750 1.000000
vt 0.718750 0.500000
vt 0.687500 1.000000
vt 0.687500 0.500000
vt 0.656250 1.000000
vt 0.656250 0.500000
vt 0.625000 1.000000
vt 0.625000 0.500000
vt 0.593750 1.000000
vt 0.593750 0.500000
vt 0.562500 1.000000
vt 0.562500 0.500000
vt 0.531250 1.000000
vt 0.531250 0.500000
vt 0.500000 1.000000
vt 0.500000 0.500000
vt 0.468750 1.000000
vt 0.468750 0.500000
vt 0.437500 1.000000
vt 0.437500 0.500000
vt 0.406250 1.000000
vt 0.406250 0.500000
vt 0.375000 1.000000
vt 0.375000 0.500000
vt 0.343750 1.000000
vt 0.343750 0.500000
vt 0.312500 1.000000
vt 0.312500 0.500000
vt 0.281250 1.000000
vt 0.281250 0.500000
vt 0.250000 1.000000
vt 0.250000 0.500000
vt 0.218750 1.000000
vt 0.218750 0.500000
vt 0.187500 1.000000
vt 0.187500 0.500000
vt 0.156250 1.000000
vt 0.156250 0.500000
vt 0.125000 1.000000
vt 0.125000 0.500000
vt 0.093750 1.000000
vt 0.093750 0.500000
vt 0.062500 1.000000
vt 0.062500 0.500000
vt 0.296822 0.485388
vt 0.250000 0.490000
vt 0.203178 0.485388
vt 0.158156 0.471731
vt 0.116663 0.449553
vt 0.080294 0.419706
vt 0.050447 0.383337
vt 0.028269 0.341844
vt 0.014612 0.296822
vt 0.010000 0.250000
vt 0.014612 0.203178
vt 0.028269 0.158156
vt 0.050447 0.116663
vt 0.080294 0.080294
vt 0.116663 0.050447
vt 0.158156 0.028269
vt 0.203178 0.014612
vt 0.250000 0.010000
vt 0.296822 0.014612
vt 0.341844 0.028269
vt 0.383337 0.050447
vt 0.419706 0.080294
vt 0.449553 0.116663
vt 0.471731 0.158156
vt 0.485388 0.203178
vt 0.490000 0.250000
vt 0.485388 0.296822
vt 0.471731 0.341844
vt 0.449553 0.383337
vt 0.419706 0.419706
vt 0.383337 0.449553
vt 0.341844 0.471731
vt 0.031250 1.000000
vt 0.031250 0.500000
vt 0.000000 1.000000
vt 0.000000 0.500000
vt 0.750000 0.490000
vt 0.796822 0.485388
vt 0.841844 0.471731
vt 0.883337 0.449553
vt 0.919706 0.419706
vt 0.949553 0.383337
vt 0.971731 0.341844
vt 0.985388 0.296822
vt 0.990000 0.250000
vt 0.985388 0.203178
vt 0.971731 0.158156
vt 0.949553 0.116663
vt 0.919706 0.080294
vt 0.883337 0.050447
vt 0.841844 0.028269
vt 0.796822 0.014612
vt 0.750000 0.010000
vt 0.703178 0.014612
vt 0.658156 0.028269
vt 0.616663 0.050447
vt 0.580294 0.080294
vt 0.550447 0.116663
vt 0.528269 0.158156
vt 0.514612 0.203178
vt 0.510000 0.250000
vt 0.514612 0.296822
vt 0.528269 0.341844
vt 0.550447 0.383337
vt 0.580294 0.419706
vt 0.616663 0.449553
vt 0.658156 0.471731
vt 0.703178 0.485388
vt 0.477998 0.022668
vt 0.602332 0.022753
vt 0.602331 0.022754
vt 0.486954 0.020916
vt 0.375000 0.250000
vt 0.625000 0.250000
vt 0.625000 0.750000
vt 0.375000 0.750000
vt 0.125000 0.750000
vt 0.875000 0.750000
vt 0.397668 0.022668
vt 0.397668 0.227332
vt 0.375000 0.000000
vt 0.602332 0.022668
vt 0.625000 0.000000
vt 0.602332 0.227332
vt 0.602331 0.227246
vt 0.486954 0.229084
vt 0.602332 0.227247
vt 0.477998 0.227332
vt 0.439941 0.227332
vt 0.602332 0.227287
vt 0.446038 0.227332
vt 0.602332 0.227281
vt 0.453960 0.227332
vt 0.602332 0.227272
vt 0.463488 0.227332
vt 0.602332 0.227262
vt 0.439941 0.022668
vt 0.446038 0.022668
vt 0.453960 0.022668
vt 0.463488 0.022668
vt 0.602332 0.022713
vt 0.602332 0.022719
vt 0.602332 0.022728
vt 0.602332 0.022738
s 0
f 1/1/1 2/2/1 4/3/1 3/4/1
f 3/4/2 4/3/2 6/5/2 5/6/2
f 5/6/3 6/5/3 8/7/3 7/8/3
f 7/8/4 8/7/4 10/9/4 9/10/4
f 9/10/5 10/9/5 12/11/5 11/12/5
f 11/12/6 12/11/6 14/13/6 13/14/6
f 13/14/7 14/13/7 16/15/7 15/16/7
f 15/16/8 16/15/8 18/17/8 17/18/8
f 17/18/9 18/17/9 20/19/9 19/20/9
f 19/20/10 20/19/10 22/21/10 21/22/10
f 21/22/11 22/21/11 24/23/11 23/24/11
f 23/24/12 24/23/12 26/25/12 25/26/12
f 25/26/13 26/25/13 28/27/13 27/28/13
f 27/28/14 28/27/14 30/29/14 29/30/14
f 29/30/15 30/29/15 32/31/15 31/32/15
f 31/32/16 32/31/16 34/33/16 33/34/16
f 33/34/17 34/33/17 36/35/17 35/36/17
f 35/36/18 36/35/18 38/37/18 37/38/18
f 37/38/19 38/37/19 40/39/19 39/40/19
f 39/40/20 40/39/20 42/41/20 41/42/20
f 41/42/21 42/41/21 44/43/21 43/44/21
f 43/44/22 44/43/22 46/45/22 45/46/22
f 45/46/23 46/45/23 48/47/23 47/48/23
f 47/48/24 48/47/24 50/49/24 49/50/24
f 49/50/25 50/49/25 52/51/25 51/52/25
f 51/52/26 52/51/26 54/53/26 53/54/26
f 53/54/27 54/53/27 56/55/27 55/56/27
f 55/56/28 56/55/28 58/57/28 57/58/28
f 57/58/29 58/57/29 60/59/29 59/60/29
f 59/60/30 60/59/30 62/61/30 61/62/30
f 4/63/31 2/64/31 64/65/31 62/66/31 60/67/31 58/68/31 56/69/31 54/70/31 52/71/31 50/72/31 48/73/31 46/74/31 44/75/31 42/76/31 40/77/31 38/78/31 36/79/31 34/80/31 32/81/31 30/82/31 28/83/31 26/84/31 24/85/31 22/86/31 20/87/31 18/88/31 16/89/31 14/90/31 12/91/31 10/92/31 8/93/31 6/94/31
f 61/62/32 62/61/32 64/95/32 63/96/32
f 63/96/33 64/95/33 2/97/33 1/98/33
f 1/99/34 3/100/34 5/101/34 7/102/34 9/103/34 11/104/34 13/105/34 15/106/34 17/107/34 19/108/34 21/109/34 23/110/34 25/111/34 27/112/34 29/113/34 31/114/34 33/115/34 35/116/34 37/117/34 39/118/34 41/119/34 43/120/34 45/121/34 47/122/34 49/123/34 51/124/34 53/125/34 55/126/34 57/127/34 59/128/34 61/129/34 63/130/34
f 86/131/35 85/132/35 79/133/35 78/134/35
f 73/135/36 76/136/36 72/26/36 71/42/36
f 71/42/37 72/26/37 70/137/37 69/138/37
f 69/138/38 70/137/38 75/25/38 74/41/38
f 73/58/34 71/42/34 69/138/34 74/139/34
f 72/26/31 76/10/31 75/140/31 70/137/31
f 65/141/39 67/142/39 73/135/39 74/143/39
f 66/144/39 65/141/39 74/143/39 75/145/39
f 68/146/39 66/144/39 75/145/39 76/136/39
f 67/142/39 68/146/39 76/136/39 73/135/39
f 78/134/40 79/133/40 80/147/40 77/148/40
f 85/132/41 95/149/41 80/147/41 79/133/41
f 96/150/42 86/131/42 78/134/42 77/148/42
f 95/149/43 96/150/43 77/148/43 80/147/43
f 68/146/44 67/142/44 100/151/44 91/152/44
f 91/152/45 100/151/45 99/153/45 92/154/45
f 92/154/45 99/153/45 98/155/45 93/156/45
f 93/156/45 98/155/45 97/157/45 94/158/45
f 94/158/45 97/157/45 96/150/45 95/149/45
f 67/142/46 65/141/46 90/159/46 100/151/46
f 100/151/47 90/159/47 89/160/47 99/153/47
f 99/153/48 89/160/48 88/161/48 98/155/48
f 98/155/49 88/161/49 87/162/49 97/157/49
f 97/157/50 87/162/50 86/131/50 96/150/50
f 66/144/51 68/146/51 91/152/51 81/163/51
f 81/163/52 91/152/52 92/154/52 82/164/52
f 82/164/53 92/154/53 93/156/53 83/165/53
f 83/165/54 93/156/54 94/158/54 84/166/54
f 84/166/55 94/158/55 95/149/55 85/132/55
f 65/141/56 66/144/56 81/163/56 90/159/56
f 90/159/57 81/163/57 82/164/57 89/160/57
f 89/160/57 82/164/57 83/165/57 88/161/57
f 88/161/57 83/165/57 84/166/57 87/162/57
f 87/162/57 84/166/57 85/132/57 86/131/57
